# xmcd
#
# Track frame offsets:
#	150
#	11252
#	27782
#	41747
#	59256
#	74061
#	88429
#	104866
#	119589
#	131303
#	157561
#	173965
#	190618
#	212798
#	231240
#	248379
#	258414
#	275774
#	290204
#	305667
#
# Disc length: 4263 seconds
#
# Revision: 2
# Processed by: cddbd v1.5.2PL0 Copyright (c) Steve Scherf et al.
# Submitted via: audiograbber 1.83.01
#
DISCID=2a10a514
DTITLE=Various Artist - Forró Duplo Sentido Vol 4
DYEAR=1900
DGENRE=Forro
TTITLE0=O Tamanho Do Meu Palmo - Manhoso
TTITLE1=Bubú - Mango Alves
TTITLE2=Cachorrinho Coló - Solteiroões Do Forró
TTITLE3=Bebe Negão - Renato Fechine
TTITLE4=Seu Rabine - DJ Maluco
TTITLE5=Reage Corno - Tonho Dos Couros
TTITLE6=Mulher De Chico - Manhoso
TTITLE7=Periquito Da Vizinha - Mala Mansa
TTITLE8=Garne Mijada - Kazaca De Couro
TTITLE9=História De Um Cago - Pau De Balançar
TTITLE10=Na Bundinha - 100 Preconceito
TTITLE11=O Que É Que A Mulher Tem Nas Pernas - 100 Preconceito
TTITLE12=O Gato - Arriba Saia
TTITLE13=Quem Quer Homem Aí - Arriba Saia
TTITLE14=Deixa Eu Botar - Água De Cheiro
TTITLE15=O Pai É Gordo E A Mãe É Curta - Duquinha
TTITLE16=Briga No Forró - Gavióes
TTITLE17=O Boca - Forró Cariciar
TTITLE18=O Lobisomem - Dedim Gouveira
TTITLE19=Unknown Bonus Track - Unknown Artist
EXTD=Direto da feira de são cristóvão
EXTT0=
EXTT1=
EXTT2=
EXTT3=
EXTT4=
EXTT5=
EXTT6=
EXTT7=
EXTT8=
EXTT9=
EXTT10=
EXTT11=
EXTT12=
EXTT13=
EXTT14=
EXTT15=
EXTT16=
EXTT17=
EXTT18=
EXTT19=
PLAYORDER=
